<svg xmlns="http://www.w3.org/2000/svg" fill="rgb(45, 149, 236)" viewBox="0 0 50 50" width="460px" height="178.2px">
    <path style="text-transform: none; line-height: normal; text-indent: 0px; block-progression: tb; -inkscape-font-specification: Bitstream Vera Sans;" d="M 0.8125 0 A 1.0001 1.0001 0 0 0 0 1 L 0 17 A 1.0001 1.0001 0 0 0 1 18 L 8 18 L 8 32 L 1 32 A 1.0001 1.0001 0 0 0 0.90625 32 A 1.0001 1.0001 0 0 0 0.8125 32 A 1.0001 1.0001 0 0 0 0 33 L 0 43.8125 A 1.01647 1.01647 0 0 0 0 43.9063 A 1.01647 1.01647 0 0 0 0 44.125 A 1.01647 1.01647 0 0 0 0 44.2188 L 0 48.8125 A 1.01647 1.01647 0 0 0 0.25 49.6563 A 1.0001 1.0001 0 0 0 0.3125 49.7188 A 1.01647 1.01647 0 0 0 0.3125 49.75 A 1.0001 1.0001 0 0 0 0.375 49.7813 A 1.01647 1.01647 0 0 0 0.46875 49.875 A 1.0001 1.0001 0 0 0 0.53125 49.9063 A 1.01647 1.01647 0 0 0 0.5625 49.9063 A 1.0001 1.0001 0 0 0 0.625 49.9375 A 1.01647 1.01647 0 0 0 0.65625 49.9375 A 1.0001 1.0001 0 0 0 0.71875 49.9688 A 1.01647 1.01647 0 0 0 0.75 49.9688 A 1.0001 1.0001 0 0 0 1 50 A 1.01647 1.01647 0 0 0 1.03125 50 L 17 50 A 1.0001 1.0001 0 0 0 18 49 L 18 42 L 32 42 L 32 49 A 1.0001 1.0001 0 0 0 33 50 L 49 50 A 1.0001 1.0001 0 0 0 50 49 L 50 33 A 1.0001 1.0001 0 0 0 49 32 L 42 32 L 42 18 L 49 18 A 1.0001 1.0001 0 0 0 50 17 L 50 1 A 1.0001 1.0001 0 0 0 49 0 L 33 0 A 1.0001 1.0001 0 0 0 32.9063 0 A 1.0001 1.0001 0 0 0 32 1 L 32 8 L 18 8 L 18 1 A 1.0001 1.0001 0 0 0 17 0 L 1 0 A 1.0001 1.0001 0 0 0 0.90625 0 A 1.0001 1.0001 0 0 0 0.8125 0 Z M 2 2 L 16 2 L 16 13.9063 L 16 16 L 2 16 L 2 2 Z M 34 2 L 48 2 L 48 16 L 34 16 L 34 13.4063 L 34 2 Z M 18 10 L 32 10 L 32 13.4063 L 32 17 A 1.0001 1.0001 0 0 0 33 18 L 40 18 L 40 32 L 37.1875 32 L 33 32 A 1.0001 1.0001 0 0 0 32.9063 32 A 1.0001 1.0001 0 0 0 32.8125 32 A 1.0001 1.0001 0 0 0 32 33 L 32 40 L 18 40 L 18 36.9063 L 18 33.3125 A 1.0001 1.0001 0 0 0 17.4688 32.0938 A 1.0001 1.0001 0 0 0 17.4063 32.0625 A 1.0001 1.0001 0 0 0 17.375 32.0625 A 1.0001 1.0001 0 0 0 17.3125 32.0313 A 1.0001 1.0001 0 0 0 17.2813 32.0313 A 1.0001 1.0001 0 0 0 17.2188 32 A 1.0001 1.0001 0 0 0 17.1563 32 A 1.0001 1.0001 0 0 0 17.125 32 A 1.0001 1.0001 0 0 0 17.0625 32 A 1.0001 1.0001 0 0 0 17.0313 32 A 1.0001 1.0001 0 0 0 17 32 L 10 32 L 10 18 L 17 18 A 1.0001 1.0001 0 0 0 18 17 L 18 13.9063 L 18 10 Z M 2 34 L 4.59375 34 L 2 36.5938 L 2 34 Z M 7.40625 34 L 9.59375 34 L 2 41.5625 L 2 39.4063 L 7.40625 34 Z M 12.4063 34 L 14.5625 34 L 2 46.5625 L 2 44.4375 L 12.3125 34.0938 A 1.0001 1.0001 0 0 0 12.4063 34 Z M 34 34 L 37.1875 34 L 48 34 L 48 48 L 34 48 L 34 34 Z M 16 35.4375 L 16 36.9063 L 16 37.625 A 1.0001 1.0001 0 0 0 15.7813 37.7813 L 5.6875 47.9063 A 1.0001 1.0001 0 0 0 5.5625 48 L 3.4375 48 L 16 35.4375 Z M 16 40.4375 L 16 42.5938 L 10.6875 47.9063 A 1.0001 1.0001 0 0 0 10.5625 48 L 8.40625 48 L 16 40.4375 Z M 16 45.4063 L 16 48 L 13.4063 48 L 16 45.4063 Z" />
</svg>