<svg xmlns="http://www.w3.org/2000/svg" fill="rgb(217, 223, 237)" enable-background="new 0 0 32 32" viewBox="0 0 32 32" width="460px" height="252px">
    <path color="#000" overflow="visible" font-family="Bitstream Vera Sans" style="text-transform: none; line-height: normal; text-indent: 0px; block-progression: tb; -inkscape-font-specification: Bitstream Vera Sans;" enable-background="accumulate" d="M 22 3 C 18.4285 3 15.4684 5.71909 15.0625 9.1875 C 14.0032 8.42838 12.75 8 11.5 8 C 10 8 8.5 8.5875 7.5 9.6875 L 4.6875 12.5 C 2.4875 14.7 2.4875 18.2938 4.6875 20.5938 L 5.25 21.1563 L 4.28125 22.0938 L 4.1875 22.1875 C 2.6207 23.7543 2.61581 26.3221 4.21875 27.8125 C 5.78273 29.3558 8.32637 29.3949 9.8125 27.8125 C 9.82293 27.8014 9.83343 27.7925 9.84375 27.7813 L 12.875 24.75 C 12.9494 24.6977 13.0244 24.6516 13.0938 24.5938 L 13.1875 24.5938 C 14.3875 24.5938 15.4937 23.9937 16.0938 23.0938 C 16.9937 22.8937 17.8125 22.3937 18.3125 21.5938 C 19.9125 21.2938 21.0938 19.8875 21.0938 18.1875 C 21.0938 17.72 20.9794 17.2806 20.7813 16.8438 C 21.1407 16.9105 21.4837 17 21.9063 17 C 25.7517 17 28.9063 13.8455 28.9063 10 C 28.9063 8.86667 28.6776 7.76546 28.0625 6.78125 L 27.375 5.71875 L 26.5 6.59375 L 22.7188 10.375 L 21.375 8.9375 L 25.0938 5.21875 L 26.1563 4.15625 L 24.7813 3.59375 C 23.9756 3.24847 23.0481 3 22 3 Z M 22 5 C 22.1423 5 22.2391 5.08248 22.375 5.09375 L 19.2813 8.1875 L 18.625 8.875 L 19.2813 9.59375 L 21.9688 12.4688 L 22.6875 13.25 L 23.4063 12.5 L 26.6875 9.21875 C 26.7336 9.49194 26.9063 9.68452 26.9063 10 C 26.9063 12.7545 24.6608 15 21.9063 15 C 21.5396 15 21.0938 14.9125 20.5938 14.8125 L 20.0625 14.7188 L 19.6875 15.0938 L 19.5625 15.25 L 16.8125 12.5 L 17.5 11.8125 L 17.2188 11.4688 L 17.1563 11.25 C 17.0753 10.9261 17 10.3667 17 10 C 17 7.24545 19.2455 5 22 5 Z M 11.5 10 C 12.5 10 13.5125 10.3875 14.3125 11.1875 L 14.6875 11.6875 L 13.9063 12.5 L 18.4063 17 C 18.8062 17.2 19 17.6875 19 18.1875 C 19 18.9875 18.3 19.6875 17.5 19.6875 C 17.2 19.6875 16.9875 19.6 16.6875 19.5 L 16.6875 19.6875 C 16.6875 20.4875 15.9875 21.1875 15.1875 21.1875 C 14.8875 21.1875 14.7063 21.1 14.4063 21 L 14.4063 21.1875 C 14.4063 21.9875 13.7063 22.6875 12.9063 22.6875 C 12.6062 22.6875 12.2937 22.6 12.0938 22.5 C 12.0437 22.65 11.9688 22.7844 11.875 22.9063 C 11.7813 23.0281 11.6875 23.1313 11.5625 23.2188 C 11.3125 23.3937 10.9875 23.5 10.6875 23.5 C 10.1875 23.5 9.8 23.3062 9.5 22.9063 L 5.90625 19.3125 C 4.50625 17.9125 4.50625 15.4937 5.90625 14.0938 L 8.6875 11.3125 C 9.5875 10.4125 10.6 10 11.5 10 Z M 6.65625 22.5625 L 8.3125 24.1875 C 8.705 24.6361 9.15562 24.9592 9.65625 25.1563 L 8.40625 26.4063 L 8.375 26.4063 L 8.375 26.4375 C 7.66259 27.2147 6.42055 27.2331 5.59375 26.4063 L 5.59375 26.375 L 5.5625 26.375 C 4.78532 25.6626 4.76695 24.4206 5.59375 23.5938 L 6.65625 22.5625 Z" />
</svg>