<svg xmlns="http://www.w3.org/2000/svg" fill="rgb(45, 149, 236)" viewBox="0 0 26 26" width="460px" height="252px">
    <path color="#000" overflow="visible" font-family="Bitstream Vera Sans" style="text-transform: none; line-height: normal; text-indent: 0px; block-progression: tb; -inkscape-font-specification: Bitstream Vera Sans;" enable-background="accumulate" d="M 13 0 C 12.2018 0 11.5524 0.52303 11.2813 1 L 10 1 C 8.90575 1 8 1.90575 8 3 L 6 3 C 4.344 3 3 4.344 3 6 L 3 23 C 3 24.656 4.344 26 6 26 L 20 26 C 21.656 26 23 24.656 23 23 L 23 6 C 23 4.344 21.656 3 20 3 L 18 3 C 18 1.90575 17.0943 1 16 1 L 14.7188 1 C 14.4476 0.52303 13.7982 0 13 0 Z M 10 3 L 12 3 L 12.9688 3 L 13.0313 3 L 14 3 L 16 3 L 16 5 L 10 5 L 10 3 Z M 6 6 L 8.28125 6 C 8.62959 6.59686 9.2673 7 10 7 L 16 7 C 16.7327 7 17.3704 6.59686 17.7188 6 L 20 6 L 20 23 L 6 23 L 6 6 Z M 8 10 L 8 12 L 18 12 L 18 10 L 8 10 Z M 8 14 L 8 16 L 15 16 L 15 14 L 8 14 Z M 8 18 L 8 20 L 18 20 L 18 18 L 8 18 Z" />
</svg>