<svg xmlns="http://www.w3.org/2000/svg" fill="rgb(217, 223, 237)" viewBox="0 0 26 26" width="460px" height="252px" version="1">
    <path d="M 8.5 0 C 7.11929 0 6 1.11929 6 2.5 C 6 3.88071 7.11929 5 8.5 5 C 9.88071 5 11 3.88071 11 2.5 C 11 1.11929 9.88071 0 8.5 0 Z M 2.59375 5.46875 C 2.30312 5.50625 2.05625 5.71875 1.90625 6.09375 L 0.09375 12 C -0.10625 12.6 0.1875 13.2125 0.6875 13.3125 L 1.90625 13.5938 C 2.40625 13.6938 2.9 13.4125 3 12.8125 L 4.40625 6.8125 C 4.50625 6.3125 4.1875 5.7875 3.6875 5.6875 L 2.90625 5.5 C 2.80625 5.475 2.69062 5.45625 2.59375 5.46875 Z M 6.1875 6 C 5.6875 6 5.5 6.59375 5.5 6.59375 C 5.1 8.29375 4.1 12.8062 4 13.4063 C 3.8 14.4063 4.2875 15.2063 4.6875 15.9063 C 5.0875 16.5063 9.89375 24.1 10.5938 25 C 11.1938 25.8 11.7875 26.1875 12.6875 25.6875 C 13.3875 25.2875 13.3062 24.2938 12.9063 23.5938 C 12.5063 22.8937 7.59375 14.9063 7.59375 14.9063 L 8.59375 11.4063 C 8.59375 11.4063 9.2 12.1875 9.5 12.6875 C 9.6 12.8875 9.7875 12.9875 10.1875 13.1875 C 10.6875 13.3875 11.8062 14.1062 12.4063 14.4063 C 13.0063 14.7063 13.7 14.7875 14 14.1875 C 14.3 13.6875 13.9063 13.1062 13.4063 12.9063 C 12.9063 12.7063 10.8125 11.4063 10.8125 11.4063 C 10.8125 11.4063 9.69375 8.99375 9.09375 7.59375 C 8.49375 6.39375 8.1125 6 7.3125 6 L 6.1875 6 Z M 21 7 C 19.8954 7 19 7.89543 19 9 C 19 10.1046 19.8954 11 21 11 C 22.1046 11 23 10.1046 23 9 C 23 7.89543 22.1046 7 21 7 Z M 17.0938 11.0938 C 16.7938 11.0938 16.5063 11.2937 16.4063 11.5938 L 15.0938 15.9063 C 14.8938 16.3062 15.1 16.7125 15.5 16.8125 L 16.5 17 C 16.8 17.1 17.2125 16.8 17.3125 16.5 L 18.3125 12.0938 C 18.4125 11.6938 18.1125 11.4125 17.8125 11.3125 L 17.0938 11.0938 Z M 19.3125 12 C 18.9125 12 18.8125 12.4063 18.8125 12.4063 C 18.5125 13.6062 17.9125 16.3125 17.8125 16.8125 C 17.7125 17.6125 18.0125 18.0938 18.3125 18.5938 C 18.6125 18.9937 22.0938 24.5875 22.5938 25.1875 C 23.0938 25.7875 23.4937 26.0875 24.0938 25.6875 C 24.5938 25.3875 24.6125 24.6875 24.3125 24.1875 C 24.0125 23.6875 20.4063 17.9063 20.4063 17.9063 L 21 15.9063 L 21.5938 16.8125 C 21.6938 17.0125 21.7938 16.9875 22.0938 17.1875 C 22.3937 17.3875 23.6875 17.9875 24.1875 18.1875 C 24.5875 18.3875 25.2062 18.4937 25.4063 18.0938 C 25.7062 17.6938 25.4937 17.2938 25.0938 17.0938 L 22.6875 15.9063 C 22.6875 15.9063 21.9063 14.0875 21.4063 13.1875 C 21.0063 12.2875 20.6938 12 20.0938 12 L 19.3125 12 Z M 3.90625 17.1875 L 3.09375 20 C 3.09375 20 1.00625 23.0125 0.40625 23.8125 C 0.00625 24.4125 -0.39375 25.2125 0.40625 25.8125 C 1.20625 26.4125 1.9125 25.5938 2.3125 25.0938 C 2.7125 24.6938 4.3125 22.4125 4.8125 21.8125 C 5.1125 21.4125 5.30625 21.1125 5.40625 20.8125 C 5.50625 20.6125 5.6125 20.4063 5.8125 19.9063 L 3.90625 17.1875 Z M 17.9063 19.4063 L 17.3125 21.5 C 17.3125 21.5 15.8062 23.7125 15.4063 24.3125 C 15.1062 24.8125 14.8062 25.2875 15.4063 25.6875 C 16.0063 26.1875 16.5125 25.5875 16.8125 25.1875 C 17.1125 24.8875 18.2938 23.2125 18.5938 22.8125 C 18.7938 22.5125 18.9 22.2938 19 22.0938 C 19.1 21.8937 19.2125 21.7125 19.3125 21.3125 L 17.9063 19.4063 Z" />
</svg>