<svg xmlns="http://www.w3.org/2000/svg" fill="rgb(45, 149, 236)" viewBox="0 0 50 50" width="460px" height="252px" version="1">
    <path d="M 9.8125 0 A 1.0001 1.0001 0 0 0 9 1 L 9 3 A 1.0001 1.0001 0 1 0 11 3 L 11 2 L 46 2 L 46 25 L 41.9063 25 L 43 23 L 41.9063 21 L 33 21 L 33 25 L 22 25 A 1.0001 1.0001 0 0 0 21.9063 25 A 1.0011 1.0011 0 0 0 22 27 L 48 27 L 48 28 L 22 28 A 1.0001 1.0001 0 1 0 22 30 L 49 30 A 1.0001 1.0001 0 0 0 50 29 L 50 26 A 1.0001 1.0001 0 0 0 49 25 L 48 25 L 48 1 A 1.0001 1.0001 0 0 0 47 0 L 10 0 A 1.0001 1.0001 0 0 0 9.90625 0 A 1.0001 1.0001 0 0 0 9.8125 0 Z M 12 5 C 8.69814 5 6 7.69814 6 11 C 6 14.3019 8.69814 17 12 17 C 15.3019 17 18 14.3019 18 11 C 18 7.69814 15.3019 5 12 5 Z M 12 17 L 9.6875 17 C 8.93483 17 7.83604 17.0933 6.8125 17.7813 C 5.78896 18.4692 5 19.7948 5 21.6875 L 5 32.4375 C 3.24192 33.2146 2 34.9631 2 37 C 2 38.5156 2.70698 39.8623 3.78125 40.7813 C 1.54469 41.9542 0 44.3155 0 47 L 0 49 A 1.0001 1.0001 0 0 0 1 50 L 13 50 A 1.0001 1.0001 0 0 0 13.0938 50 L 24.8438 50 L 25 50 L 25.0938 50 L 36.8438 50 L 37 50 A 1.0001 1.0001 0 0 0 37.0938 50 L 49 50 A 1.0001 1.0001 0 0 0 50 49 L 50 47 C 50 44.3155 48.4553 41.9542 46.2188 40.7813 C 47.293 39.8623 48 38.5156 48 37 C 48 34.2504 45.7496 32 43 32 C 40.2504 32 38 34.2504 38 37 C 38 38.5156 38.707 39.8623 39.7813 40.7813 C 38.6398 41.3799 37.6658 42.307 37 43.4063 C 36.3317 42.2913 35.3696 41.3848 34.2188 40.7813 C 35.293 39.8623 36 38.5156 36 37 C 36 34.2504 33.7496 32 31 32 C 28.2504 32 26 34.2504 26 37 C 26 38.5156 26.707 39.8623 27.7813 40.7813 C 26.6398 41.3799 25.6658 42.307 25 43.4063 C 24.3306 42.3011 23.3703 41.3822 22.2188 40.7813 C 23.293 39.8623 24 38.5156 24 37 C 24 34.5941 22.2727 32.5621 20 32.0938 L 20 23 L 24.2813 21.4688 L 24.3125 21.4375 C 24.3217 21.4348 24.3346 21.4403 24.3438 21.4375 C 25.1955 21.1815 25.8965 20.7211 26.375 20.0938 L 26.4063 20.0938 L 31.4063 13.625 A 1.0011 1.0011 0 0 0 31.4063 13.5938 C 32.3266 12.3667 32.1867 10.5541 30.9063 9.59375 C 30.2927 9.13359 29.5394 8.95122 28.8125 9.03125 C 28.0856 9.11128 27.3864 9.45351 26.9063 10.0938 L 22.625 15.625 L 16 17 L 15.9375 17 L 12 17 Z M 12 7 C 14.221 7 16 8.77902 16 11 C 16 13.221 14.221 15 12 15 C 9.77902 15 8 13.221 8 11 C 8 8.77902 9.77902 7 12 7 Z M 29.0313 11.0313 C 29.2516 11.005 29.501 11.0477 29.6875 11.1875 C 29.9989 11.4211 30.0683 12.0014 29.8125 12.375 C 29.8058 12.3847 29.8196 12.3968 29.8125 12.4063 L 24.8125 18.875 A 1.0011 1.0011 0 0 0 24.8125 18.9063 C 24.7047 19.05 24.225 19.3866 23.7188 19.5313 A 1.0011 1.0011 0 0 0 23.6563 19.5625 L 18.6563 21.3438 A 1.0011 1.0011 0 0 0 18 22.3125 L 18 32.0938 C 15.7273 32.5621 14 34.5941 14 37 C 14 38.5156 14.707 39.8623 15.7813 40.7813 C 14.6398 41.3799 13.6658 42.307 13 43.4063 C 12.3317 42.2913 11.3696 41.3848 10.2188 40.7813 C 11.293 39.8623 12 38.5156 12 37 C 12 34.2504 9.74958 32 7 32 L 7 21.6875 C 7 20.2802 7.40479 19.7745 7.90625 19.4375 C 8.40771 19.1005 9.14017 19 9.6875 19 L 16 19 A 1.0011 1.0011 0 0 0 16.2188 18.9688 L 23.4063 17.4688 A 1.0011 1.0011 0 0 0 24 17.125 L 28.5 11.3125 C 28.6198 11.1527 28.8109 11.0575 29.0313 11.0313 Z M 7 34 C 8.6687 34 10 35.3313 10 37 C 10 38.6687 8.6687 40 7 40 C 5.3313 40 4 38.6687 4 37 C 4 35.648 4.87447 34.5054 6.09375 34.125 C 6.15174 34.1069 6.22175 34.1084 6.28125 34.0938 A 1.0011 1.0011 0 0 0 6.40625 34.0625 C 6.60235 34.0228 6.79141 34 7 34 Z M 31 34 C 32.6687 34 34 35.3313 34 37 C 34 38.6687 32.6687 40 31 40 C 29.3313 40 28 38.6687 28 37 C 28 35.3313 29.3313 34 31 34 Z M 43 34 C 44.6687 34 46 35.3313 46 37 C 46 38.6687 44.6687 40 43 40 C 41.3313 40 40 38.6687 40 37 C 40 35.3313 41.3313 34 43 34 Z M 18.75 34.0313 C 18.7606 34.0304 18.7706 34.032 18.7813 34.0313 A 1.0011 1.0011 0 0 0 19.1875 34.0313 C 19.1982 34.0319 19.2081 34.0305 19.2188 34.0313 C 20.7785 34.1466 22 35.4085 22 37 C 22 38.6687 20.6687 40 19 40 C 17.3313 40 16 38.6687 16 37 C 16 35.4193 17.2056 34.1617 18.75 34.0313 Z M 7 42 C 9.75455 42 12 44.2455 12 47 L 12 48 L 2 48 L 2 47 C 2 44.2455 4.24545 42 7 42 Z M 19 42 C 21.7545 42 24 44.2455 24 47 L 24 48 L 14 48 L 14 47 C 14 44.2455 16.2455 42 19 42 Z M 31 42 C 33.7545 42 36 44.2455 36 47 L 36 48 L 26 48 L 26 47 C 26 44.2455 28.2455 42 31 42 Z M 43 42 C 45.7545 42 48 44.2455 48 47 L 48 48 L 38 48 L 38 47 C 38 44.2455 40.2455 42 43 42 Z" />
</svg>